# xmcd
#
# Track frame offsets: 
#        150
#        10752
#        22132
#        31857
#        43831
#        53808
#        61046
#        73447
#        83935
#        97344
#        110912
#        124484
#        136223
#        146156
#        157223
#        169041
#        181229
#        192457
#        203607
#        210662
#        221913
#        232788
#        244187
#        256367
#        267625
#
# Disc length: 3727 seconds
#
# Revision: 0
# Processed by: cddbd v1.5.2PL0 Copyright (c) Steve Scherf et al.
# Submitted via: ExactAudioCopyFreeDBPlugin 1.0
#
DISCID=890e8d19
DTITLE=Carolina Cotton - Yodel Yodel Yodel
DYEAR=1900
DGENRE=
TTITLE0=I Love To Yodel
TTITLE1=Id Love to be a Cowgirl
TTITLE2=Cause Im In Love (Smiley Burnette Show)
TTITLE3=Lovin Ducky Daddy  (Nayv Country Hoedown)
TTITLE4=Three Miles south of Of Cash (Nayv Country Hoedown)
TTITLE5=Betcha I Betcha (Hoedown 1950)
TTITLE6=You Gotr Me Wrapped Around Your Finger
TTITLE7=Chime Bells
TTITLE8=Yodel Mountain
TTITLE9=Why Did I Fall For  Abrier
TTITLE10=When The Bloom Is on The Sage
TTITLE11=Texas Home
TTITLE12=Im All Alone
TTITLE13=Yodel Yodel Yodel
TTITLE14=Noia
TTITLE15=Youre Gettin a Good Girl
TTITLE16=Cattle Call
TTITLE17=Boo Hoo Blues
TTITLE18=Crime Will Never PAy
TTITLE19=Betcha I Getcha
TTITLE20=You Always Keep Me In Hot Water Over You
TTITLE21=Three Miles South Of Cash
TTITLE22=Lovin Ducky Daddy
TTITLE23=Cause Im In Love
TTITLE24=Three Miles South of Cash (Snader Telescription)
EXTD=
EXTT0=
EXTT1=
EXTT2=
EXTT3=
EXTT4=
EXTT5=
EXTT6=
EXTT7=
EXTT8=
EXTT9=
EXTT10=
EXTT11=
EXTT12=
EXTT13=
EXTT14=
EXTT15=
EXTT16=
EXTT17=
EXTT18=
EXTT19=
EXTT20=
EXTT21=
EXTT22=
EXTT23=
EXTT24=
PLAYORDER=
